<?xml version="1.0" encoding="utf-8"?>
<!-- Generated by Mocodo 4.3.2 -->
<svg width="940" height="886" viewBox="0 0 940 886" xmlns="http://www.w3.org/2000/svg">
<rect x="0" y="0" width="940" height="886" fill="#f7f7f7" stroke="none" stroke-width="0"/>

<!-- Association USER_MANAGE_CLOSET -->
<g>
	<line x1="121" y1="312" x2="121" y2="85" stroke="#7fbc41" stroke-width="2"/>
	<line x1="541" y1="85" x2="121" y2="85" stroke="#7fbc41" stroke-width="2"/>
	<g>
		<path d="M189 60 a14 14 90 0 1 14 14 V85 h-164 V74 a14 14 90 0 1 14 -14" fill="#b8e186" stroke="#b8e186" stroke-width="0"/>
		<path d="M203 85 v11 a14 14 90 0 1 -14 14 H53 a14 14 90 0 1 -14 -14 V85 H164" fill="#e6f5d0" stroke="#e6f5d0" stroke-width="0"/>
		<rect x="39" y="60" width="164" height="50" fill="none" rx="14" stroke="#7fbc41" stroke-width="2"/>
		<line x1="39" y1="85" x2="203" y2="85" stroke="#7fbc41" stroke-width="1"/>
		<text x="47" y="77.75" fill="#000000" font-family="Verdana" font-size="12">USER_MANAGE_CLOSET</text>
	</g>
	<text x="126" y="245" fill="#c51b7d" font-family="Verdana" font-size="12">1,1</text>
	<text x="462" y="102" fill="#c51b7d" font-family="Verdana" font-size="12">0,N</text>
</g>

<!-- Association USER_CREATES_OUTFIT -->
<g>
	<line x1="849" y1="556" x2="849" y2="85" stroke="#7fbc41" stroke-width="2"/>
	<line x1="541" y1="85" x2="849" y2="85" stroke="#7fbc41" stroke-width="2"/>
	<g>
		<path d="M917 60 a14 14 90 0 1 14 14 V85 h-164 V74 a14 14 90 0 1 14 -14" fill="#b8e186" stroke="#b8e186" stroke-width="0"/>
		<path d="M931 85 v11 a14 14 90 0 1 -14 14 H781 a14 14 90 0 1 -14 -14 V85 H164" fill="#e6f5d0" stroke="#e6f5d0" stroke-width="0"/>
		<rect x="767" y="60" width="164" height="50" fill="none" rx="14" stroke="#7fbc41" stroke-width="2"/>
		<line x1="767" y1="85" x2="931" y2="85" stroke="#7fbc41" stroke-width="1"/>
		<text x="774" y="77.75" fill="#000000" font-family="Verdana" font-size="12">USER_CREATES_OUTFIT</text>
	</g>
	<text x="854" y="489" fill="#c51b7d" font-family="Verdana" font-size="12">1,1</text>
	<text x="598" y="102" fill="#c51b7d" font-family="Verdana" font-size="12">0,N</text>
</g>

<!-- Association USER_CREATES_TAGS -->
<g>
	<line x1="541" y1="312" x2="541" y2="211" stroke="#7fbc41" stroke-width="2"/>
	<line x1="541" y1="85" x2="541" y2="211" stroke="#7fbc41" stroke-width="2"/>
	<g>
		<path d="M603 186 a14 14 90 0 1 14 14 V211 h-152 V200 a14 14 90 0 1 14 -14" fill="#b8e186" stroke="#b8e186" stroke-width="0"/>
		<path d="M617 211 v11 a14 14 90 0 1 -14 14 H479 a14 14 90 0 1 -14 -14 V211 H152" fill="#e6f5d0" stroke="#e6f5d0" stroke-width="0"/>
		<rect x="465" y="186" width="152" height="50" fill="none" rx="14" stroke="#7fbc41" stroke-width="2"/>
		<line x1="465" y1="211" x2="617" y2="211" stroke="#7fbc41" stroke-width="1"/>
		<text x="472" y="203.75" fill="#000000" font-family="Verdana" font-size="12">USER_CREATES_TAGS</text>
	</g>
	<text x="546" y="253" fill="#c51b7d" font-family="Verdana" font-size="12">1,1</text>
	<text x="546" y="178" fill="#c51b7d" font-family="Verdana" font-size="12">0,N</text>
</g>

<!-- Association CLOSET_HAVE_CLOTHING_ITEM -->
<g>
	<line x1="265" y1="556" x2="121" y2="421" stroke="#7fbc41" stroke-width="2"/>
	<line x1="121" y1="312" x2="121" y2="421" stroke="#7fbc41" stroke-width="2"/>
	<g>
		<path d="M214 396 a14 14 90 0 1 14 14 V421 h-214 V410 a14 14 90 0 1 14 -14" fill="#b8e186" stroke="#b8e186" stroke-width="0"/>
		<path d="M228 421 v11 a14 14 90 0 1 -14 14 H28 a14 14 90 0 1 -14 -14 V421 H214" fill="#e6f5d0" stroke="#e6f5d0" stroke-width="0"/>
		<rect x="14" y="396" width="214" height="50" fill="none" rx="14" stroke="#7fbc41" stroke-width="2"/>
		<line x1="14" y1="421" x2="228" y2="421" stroke="#7fbc41" stroke-width="1"/>
		<text x="22" y="413.75" fill="#000000" font-family="Verdana" font-size="12">CLOSET_HAVE_CLOTHING_ITEM</text>
	</g>
	<text x="182" y="512.81" fill="#c51b7d" font-family="Verdana" font-size="12">1,1</text>
	<text x="126" y="388" fill="#c51b7d" font-family="Verdana" font-size="12">0,N</text>
</g>

<!-- Association CLOTHING_ITEM_HAS_TAGS -->
<g>
	<line x1="265" y1="556" x2="403" y2="421" stroke="#7fbc41" stroke-width="2"/>
	<line x1="541" y1="312" x2="403" y2="421" stroke="#7fbc41" stroke-width="2"/>
	<g>
		<path d="M485 396 a14 14 90 0 1 14 14 V421 h-192 V410 a14 14 90 0 1 14 -14" fill="#b8e186" stroke="#b8e186" stroke-width="0"/>
		<path d="M499 421 v11 a14 14 90 0 1 -14 14 H321 a14 14 90 0 1 -14 -14 V421 H192" fill="#e6f5d0" stroke="#e6f5d0" stroke-width="0"/>
		<rect x="307" y="396" width="192" height="50" fill="none" rx="14" stroke="#7fbc41" stroke-width="2"/>
		<line x1="307" y1="421" x2="499" y2="421" stroke="#7fbc41" stroke-width="1"/>
		<text x="315" y="413.75" fill="#000000" font-family="Verdana" font-size="12">CLOTHING_ITEM_HAS_TAGS</text>
	</g>
	<text x="327" y="510.28" fill="#c51b7d" font-family="Verdana" font-size="12">0,N</text>
	<text x="474" y="341.5" fill="#c51b7d" font-family="Verdana" font-size="12">0,N</text>
</g>

<!-- Association OUTFIT_HAS_TAGS -->
<g>
	<line x1="849" y1="556" x2="675" y2="421" stroke="#7fbc41" stroke-width="2"/>
	<line x1="541" y1="312" x2="675" y2="421" stroke="#7fbc41" stroke-width="2"/>
	<g>
		<path d="M728 396 a14 14 90 0 1 14 14 V421 h-134 V410 a14 14 90 0 1 14 -14" fill="#b8e186" stroke="#b8e186" stroke-width="0"/>
		<path d="M742 421 v11 a14 14 90 0 1 -14 14 H622 a14 14 90 0 1 -14 -14 V421 H134" fill="#e6f5d0" stroke="#e6f5d0" stroke-width="0"/>
		<rect x="608" y="396" width="134" height="50" fill="none" rx="14" stroke="#7fbc41" stroke-width="2"/>
		<line x1="608" y1="421" x2="742" y2="421" stroke="#7fbc41" stroke-width="1"/>
		<text x="615" y="413.75" fill="#000000" font-family="Verdana" font-size="12">OUTFIT_HAS_TAGS</text>
	</g>
	<text x="782" y="536.15" fill="#c51b7d" font-family="Verdana" font-size="12">0,N</text>
	<text x="586" y="342.58" fill="#c51b7d" font-family="Verdana" font-size="12">0,N</text>
</g>

<!-- Association OUTFIT_HAS_CLOTHING_ITEM -->
<g>
	<line x1="849" y1="556" x2="675" y2="556" stroke="#7fbc41" stroke-width="2"/>
	<line x1="265" y1="556" x2="675" y2="556" stroke="#7fbc41" stroke-width="2"/>
	<g>
		<path d="M763 531 a14 14 90 0 1 14 14 V556 h-204 V545 a14 14 90 0 1 14 -14" fill="#b8e186" stroke="#b8e186" stroke-width="0"/>
		<path d="M777 556 v11 a14 14 90 0 1 -14 14 H587 a14 14 90 0 1 -14 -14 V556 H204" fill="#e6f5d0" stroke="#e6f5d0" stroke-width="0"/>
		<rect x="573" y="531" width="204" height="50" fill="none" rx="14" stroke="#7fbc41" stroke-width="2"/>
		<line x1="573" y1="556" x2="777" y2="556" stroke="#7fbc41" stroke-width="1"/>
		<text x="581" y="548.75" fill="#000000" font-family="Verdana" font-size="12">OUTFIT_HAS_CLOTHING_ITEM</text>
	</g>
	<text x="782" y="573" fill="#c51b7d" font-family="Verdana" font-size="12">0,N</text>
	<text x="327" y="573" fill="#c51b7d" font-family="Verdana" font-size="12">0,N</text>
</g>

<!-- Association CLOTHING_ITEM_HAS_CATEGORY -->
<g>
	<line x1="265" y1="556" x2="121" y2="691" stroke="#7fbc41" stroke-width="2"/>
	<line x1="121" y1="809" x2="121" y2="691" stroke="#7fbc41" stroke-width="2"/>
	<g>
		<path d="M219 666 a14 14 90 0 1 14 14 V691 h-224 V680 a14 14 90 0 1 14 -14" fill="#b8e186" stroke="#b8e186" stroke-width="0"/>
		<path d="M233 691 v11 a14 14 90 0 1 -14 14 H23 a14 14 90 0 1 -14 -14 V691 H224" fill="#e6f5d0" stroke="#e6f5d0" stroke-width="0"/>
		<rect x="9" y="666" width="224" height="50" fill="none" rx="14" stroke="#7fbc41" stroke-width="2"/>
		<line x1="9" y1="691" x2="233" y2="691" stroke="#7fbc41" stroke-width="1"/>
		<text x="16" y="683.75" fill="#000000" font-family="Verdana" font-size="12">CLOTHING_ITEM_HAS_CATEGORY</text>
	</g>
	<text x="182" y="608.19" fill="#c51b7d" font-family="Verdana" font-size="12">1,1</text>
	<text x="126" y="750" fill="#c51b7d" font-family="Verdana" font-size="12">0,N</text>
</g>

<!-- Association CLOTHING_ITEM_HAS_PICTURE -->
<g>
	<line x1="265" y1="556" x2="403" y2="691" stroke="#7fbc41" stroke-width="2"/>
	<line x1="403" y1="809" x2="403" y2="691" stroke="#7fbc41" stroke-width="2"/>
	<g>
		<path d="M495 666 a14 14 90 0 1 14 14 V691 h-212 V680 a14 14 90 0 1 14 -14" fill="#b8e186" stroke="#b8e186" stroke-width="0"/>
		<path d="M509 691 v11 a14 14 90 0 1 -14 14 H311 a14 14 90 0 1 -14 -14 V691 H212" fill="#e6f5d0" stroke="#e6f5d0" stroke-width="0"/>
		<rect x="297" y="666" width="212" height="50" fill="none" rx="14" stroke="#7fbc41" stroke-width="2"/>
		<line x1="297" y1="691" x2="509" y2="691" stroke="#7fbc41" stroke-width="1"/>
		<text x="305" y="683.75" fill="#000000" font-family="Verdana" font-size="12">CLOTHING_ITEM_HAS_PICTURE</text>
	</g>
	<text x="327" y="610.72" fill="#c51b7d" font-family="Verdana" font-size="12">0,N</text>
	<text x="408" y="733" fill="#c51b7d" font-family="Verdana" font-size="12">1,1</text>
</g>

<!-- Association OUTFIT_HAS_PICTURE -->
<g>
	<line x1="849" y1="556" x2="849" y2="691" stroke="#7fbc41" stroke-width="2"/>
	<line x1="849" y1="809" x2="849" y2="691" stroke="#7fbc41" stroke-width="2"/>
	<g>
		<path d="M912 666 a14 14 90 0 1 14 14 V691 h-154 V680 a14 14 90 0 1 14 -14" fill="#b8e186" stroke="#b8e186" stroke-width="0"/>
		<path d="M926 691 v11 a14 14 90 0 1 -14 14 H786 a14 14 90 0 1 -14 -14 V691 H154" fill="#e6f5d0" stroke="#e6f5d0" stroke-width="0"/>
		<rect x="772" y="666" width="154" height="50" fill="none" rx="14" stroke="#7fbc41" stroke-width="2"/>
		<line x1="772" y1="691" x2="926" y2="691" stroke="#7fbc41" stroke-width="1"/>
		<text x="780" y="683.75" fill="#000000" font-family="Verdana" font-size="12">OUTFIT_HAS_PICTURE</text>
	</g>
	<text x="854" y="632" fill="#c51b7d" font-family="Verdana" font-size="12">0,N</text>
	<text x="854" y="733" fill="#c51b7d" font-family="Verdana" font-size="12">1,1</text>
</g>

<!-- Entity APP_USER -->
<g>
	<g>
		<rect x="489" y="9" width="104" height="25" fill="#f1b6da" stroke="none" stroke-width="0" opacity="1"/>
		<rect x="489" y="34" width="104" height="127" fill="#fde0ef" stroke="none" stroke-width="0" opacity="1"/>
		<rect x="489" y="9" width="104" height="152" fill="none" stroke="#de77ae" stroke-width="2" opacity="1"/>
		<line x1="489" y1="34" x2="593" y2="34" stroke="#de77ae" stroke-width="1"/>
	</g>
	<text x="509" y="26.75" fill="#000000" font-family="Verdana" font-size="12">APP_USER</text>
	<text x="494" y="51.8" fill="#000000" font-family="Verdana" font-size="12">id</text>
	<line x1="494" y1="54" x2="506" y2="54" stroke="#000000" stroke-width="1"/>
	<text x="494" y="68.8" fill="#000000" font-family="Verdana" font-size="12">pseudo</text>
	<text x="494" y="85.8" fill="#000000" font-family="Verdana" font-size="12">picture_url</text>
	<text x="494" y="102.8" fill="#000000" font-family="Verdana" font-size="12">email</text>
	<text x="494" y="119.8" fill="#000000" font-family="Verdana" font-size="12">password_hash</text>
	<text x="494" y="136.8" fill="#000000" font-family="Verdana" font-size="12">created_at</text>
	<text x="494" y="153.8" fill="#000000" font-family="Verdana" font-size="12">updated_at</text>
</g>

<!-- Entity CLOSET -->
<g>
	<g>
		<rect x="82" y="253" width="78" height="25" fill="#f1b6da" stroke="none" stroke-width="0" opacity="1"/>
		<rect x="82" y="278" width="78" height="93" fill="#fde0ef" stroke="none" stroke-width="0" opacity="1"/>
		<rect x="82" y="253" width="78" height="118" fill="none" stroke="#de77ae" stroke-width="2" opacity="1"/>
		<line x1="82" y1="278" x2="160" y2="278" stroke="#de77ae" stroke-width="1"/>
	</g>
	<text x="97" y="270.75" fill="#000000" font-family="Verdana" font-size="12">CLOSET</text>
	<text x="87" y="295.8" fill="#000000" font-family="Verdana" font-size="12">id</text>
	<line x1="87" y1="298" x2="99" y2="298" stroke="#000000" stroke-width="1"/>
	<text x="87" y="312.8" fill="#000000" font-family="Verdana" font-size="12">description</text>
	<text x="87" y="329.8" fill="#000000" font-family="Verdana" font-size="12">name</text>
	<text x="87" y="346.8" fill="#000000" font-family="Verdana" font-size="12">created_at</text>
	<text x="87" y="363.8" fill="#000000" font-family="Verdana" font-size="12">uptated_at</text>
</g>

<!-- Entity TAG -->
<g>
	<g>
		<rect x="501" y="261" width="80" height="25" fill="#f1b6da" stroke="none" stroke-width="0" opacity="1"/>
		<rect x="501" y="286" width="80" height="77" fill="#fde0ef" stroke="none" stroke-width="0" opacity="1"/>
		<rect x="501" y="261" width="80" height="102" fill="none" stroke="#de77ae" stroke-width="2" opacity="1"/>
		<line x1="501" y1="286" x2="581" y2="286" stroke="#de77ae" stroke-width="1"/>
	</g>
	<text x="528" y="278.75" fill="#000000" font-family="Verdana" font-size="12">TAG</text>
	<text x="506" y="303.8" fill="#000000" font-family="Verdana" font-size="12">id</text>
	<line x1="506" y1="306" x2="518" y2="306" stroke="#000000" stroke-width="1"/>
	<text x="506" y="320.8" fill="#000000" font-family="Verdana" font-size="12">name</text>
	<text x="506" y="337.8" fill="#000000" font-family="Verdana" font-size="12">created_at</text>
	<text x="506" y="354.8" fill="#000000" font-family="Verdana" font-size="12">updated_at</text>
</g>

<!-- Entity CLOTHING_ITEM -->
<g>
	<g>
		<rect x="208" y="471" width="114" height="25" fill="#f1b6da" stroke="none" stroke-width="0" opacity="1"/>
		<rect x="208" y="496" width="114" height="145" fill="#fde0ef" stroke="none" stroke-width="0" opacity="1"/>
		<rect x="208" y="471" width="114" height="170" fill="none" stroke="#de77ae" stroke-width="2" opacity="1"/>
		<line x1="208" y1="496" x2="322" y2="496" stroke="#de77ae" stroke-width="1"/>
	</g>
	<text x="214" y="488.75" fill="#000000" font-family="Verdana" font-size="12">CLOTHING_ITEM</text>
	<text x="213" y="513.8" fill="#000000" font-family="Verdana" font-size="12">id</text>
	<line x1="213" y1="516" x2="225" y2="516" stroke="#000000" stroke-width="1"/>
	<text x="213" y="530.8" fill="#000000" font-family="Verdana" font-size="12">name</text>
	<text x="213" y="547.8" fill="#000000" font-family="Verdana" font-size="12">subcategory</text>
	<text x="213" y="564.8" fill="#000000" font-family="Verdana" font-size="12">color</text>
	<text x="213" y="581.8" fill="#000000" font-family="Verdana" font-size="12">is_favorite</text>
	<text x="213" y="598.8" fill="#000000" font-family="Verdana" font-size="12">comment</text>
	<text x="213" y="615.8" fill="#000000" font-family="Verdana" font-size="12">created_at</text>
	<text x="213" y="632.8" fill="#000000" font-family="Verdana" font-size="12">updated_at</text>
</g>

<!-- Entity OUTFIT -->
<g>
	<g>
		<rect x="809" y="497" width="80" height="25" fill="#f1b6da" stroke="none" stroke-width="0" opacity="1"/>
		<rect x="809" y="522" width="80" height="93" fill="#fde0ef" stroke="none" stroke-width="0" opacity="1"/>
		<rect x="809" y="497" width="80" height="118" fill="none" stroke="#de77ae" stroke-width="2" opacity="1"/>
		<line x1="809" y1="522" x2="889" y2="522" stroke="#de77ae" stroke-width="1"/>
	</g>
	<text x="826" y="514.75" fill="#000000" font-family="Verdana" font-size="12">OUTFIT</text>
	<text x="814" y="539.8" fill="#000000" font-family="Verdana" font-size="12">id</text>
	<line x1="814" y1="542" x2="826" y2="542" stroke="#000000" stroke-width="1"/>
	<text x="814" y="556.8" fill="#000000" font-family="Verdana" font-size="12">name</text>
	<text x="814" y="573.8" fill="#000000" font-family="Verdana" font-size="12">comment</text>
	<text x="814" y="590.8" fill="#000000" font-family="Verdana" font-size="12">created_at</text>
	<text x="814" y="607.8" fill="#000000" font-family="Verdana" font-size="12">updated_at</text>
</g>

<!-- Entity CLOTHING_CATEGORY -->
<g>
	<g>
		<rect x="46" y="758" width="150" height="25" fill="#f1b6da" stroke="none" stroke-width="0" opacity="1"/>
		<rect x="46" y="783" width="150" height="77" fill="#fde0ef" stroke="none" stroke-width="0" opacity="1"/>
		<rect x="46" y="758" width="150" height="102" fill="none" stroke="#de77ae" stroke-width="2" opacity="1"/>
		<line x1="46" y1="783" x2="196" y2="783" stroke="#de77ae" stroke-width="1"/>
	</g>
	<text x="52" y="775.75" fill="#000000" font-family="Verdana" font-size="12">CLOTHING_CATEGORY</text>
	<text x="51" y="800.8" fill="#000000" font-family="Verdana" font-size="12">id</text>
	<line x1="51" y1="803" x2="63" y2="803" stroke="#000000" stroke-width="1"/>
	<text x="51" y="817.8" fill="#000000" font-family="Verdana" font-size="12">name</text>
	<text x="51" y="834.8" fill="#000000" font-family="Verdana" font-size="12">created_at</text>
	<text x="51" y="851.8" fill="#000000" font-family="Verdana" font-size="12">updated_at</text>
</g>

<!-- Entity CLOTHING_PICTURE -->
<g>
	<g>
		<rect x="335" y="741" width="136" height="25" fill="#f1b6da" stroke="none" stroke-width="0" opacity="1"/>
		<rect x="335" y="766" width="136" height="111" fill="#fde0ef" stroke="none" stroke-width="0" opacity="1"/>
		<rect x="335" y="741" width="136" height="136" fill="none" stroke="#de77ae" stroke-width="2" opacity="1"/>
		<line x1="335" y1="766" x2="471" y2="766" stroke="#de77ae" stroke-width="1"/>
	</g>
	<text x="340" y="758.75" fill="#000000" font-family="Verdana" font-size="12">CLOTHING_PICTURE</text>
	<text x="340" y="783.8" fill="#000000" font-family="Verdana" font-size="12">id</text>
	<line x1="340" y1="786" x2="352" y2="786" stroke="#000000" stroke-width="1"/>
	<text x="340" y="800.8" fill="#000000" font-family="Verdana" font-size="12">url</text>
	<text x="340" y="817.8" fill="#000000" font-family="Verdana" font-size="12">alt_text</text>
	<text x="340" y="834.8" fill="#000000" font-family="Verdana" font-size="12">is_cover</text>
	<text x="340" y="851.8" fill="#000000" font-family="Verdana" font-size="12">created_at</text>
	<text x="340" y="868.8" fill="#000000" font-family="Verdana" font-size="12">updated_at</text>
</g>

<!-- Entity OUTFIT_PICTURE -->
<g>
	<g>
		<rect x="791" y="741" width="116" height="25" fill="#f1b6da" stroke="none" stroke-width="0" opacity="1"/>
		<rect x="791" y="766" width="116" height="111" fill="#fde0ef" stroke="none" stroke-width="0" opacity="1"/>
		<rect x="791" y="741" width="116" height="136" fill="none" stroke="#de77ae" stroke-width="2" opacity="1"/>
		<line x1="791" y1="766" x2="907" y2="766" stroke="#de77ae" stroke-width="1"/>
	</g>
	<text x="796" y="758.75" fill="#000000" font-family="Verdana" font-size="12">OUTFIT_PICTURE</text>
	<text x="796" y="783.8" fill="#000000" font-family="Verdana" font-size="12">id</text>
	<line x1="796" y1="786" x2="808" y2="786" stroke="#000000" stroke-width="1"/>
	<text x="796" y="800.8" fill="#000000" font-family="Verdana" font-size="12">url</text>
	<text x="796" y="817.8" fill="#000000" font-family="Verdana" font-size="12">alt_text</text>
	<text x="796" y="834.8" fill="#000000" font-family="Verdana" font-size="12">is_cover</text>
	<text x="796" y="851.8" fill="#000000" font-family="Verdana" font-size="12">created_at</text>
	<text x="796" y="868.8" fill="#000000" font-family="Verdana" font-size="12">updated_at</text>
</g>
</svg>